<?xml version="1.0" encoding="UTF-8"?>
<!DOCTYPE svg PUBLIC "-//W3C//DTD SVG 1.1//EN" "http://www.w3.org/Graphics/SVG/1.1/DTD/svg11.dtd">
<!-- Creator: CorelDRAW 2021.5 -->
<svg xmlns="http://www.w3.org/2000/svg" xml:space="preserve" width="1.17031in" height="1.16978in" version="1.1" style="shape-rendering:geometricPrecision; text-rendering:geometricPrecision; image-rendering:optimizeQuality; fill-rule:evenodd; clip-rule:evenodd"
viewBox="0 0 166.38 166.31"
 xmlns:xlink="http://www.w3.org/1999/xlink"
 xmlns:xodm="http://www.corel.com/coreldraw/odm/2003">
 <defs>
  <style type="text/css">
   <![CDATA[
    .fil0 {fill:url(#id0);fill-rule:nonzero}
   ]]>
  </style>
  <linearGradient id="id0" gradientUnits="userSpaceOnUse" x1="43.52" y1="121.44" x2="163.21" y2="2.44">
   <stop offset="0" style="stop-opacity:1; stop-color:#1751A4"/>
   <stop offset="0.2" style="stop-opacity:1; stop-color:#1E6299"/>
   <stop offset="0.658824" style="stop-opacity:1; stop-color:#348A75"/>
   <stop offset="1" style="stop-opacity:1; stop-color:#49AB48"/>
  </linearGradient>
 </defs>
 <g id="Layer_x0020_1">
  <metadata id="CorelCorpID_0Corel-Layer"/>
  <path class="fil0" d="M152.99 71.98c6.44,-7.62 11.54,-17.31 13.39,-28.48 0,-0.15 -0.22,-0.44 -0.44,-0.59 -0.15,-0.07 -0.3,-0.15 -0.37,0 -9.47,25.67 -24.93,38.47 -46.68,47.34 -0.89,-3.55 -1.7,-7.18 -2.29,-10.8 8.36,-2.29 16.5,-5.62 23.08,-10.43 7.18,-5.25 13.17,-11.98 17.53,-19.75 4.22,-7.47 7.18,-15.09 8.8,-22.86 0.44,-1.92 0.22,-2.59 -0.44,-3.11 -0.07,-0.07 -0.22,-0.15 -0.3,-0.22 -0.3,-0.22 -0.44,0 -0.52,0.37 -0.44,2.22 -1.18,3.85 -1.78,5.77 -8.65,23.15 -22.41,37.13 -47.34,42.9 -0.37,-4.07 -0.52,-8.21 -0.3,-12.28 17.53,-3.7 32.33,-15.9 40.39,-31.73 3.62,-7.18 6.21,-14.8 8.21,-23.3 0.3,-1.33 -0.67,-2 -0.74,-2.07 -0.15,-0.15 -0.37,-0.22 -0.59,-0.22 -0.3,-0.15 -0.74,-0.3 -1.33,-0.15 -8.51,2 -16.13,4.59 -23.3,8.21 -15.83,8.06 -27.96,22.78 -31.66,40.17 -4.07,0.22 -8.21,0.07 -12.28,-0.3 5.77,-24.78 19.68,-38.47 42.83,-47.05 1.85,-0.67 3.55,-1.33 5.77,-1.77 0.3,-0.07 0.59,-0.3 0.37,-0.52 -0.07,-0.07 -0.15,-0.22 -0.22,-0.3 -0.52,-0.67 -1.18,-0.81 -3.11,-0.44 -7.77,1.7 -15.31,4.59 -22.86,8.8 -7.69,4.36 -14.5,10.36 -19.75,17.53 -4.73,6.51 -8.06,14.57 -10.36,22.78 -3.62,-0.59 -7.25,-1.41 -10.8,-2.29 8.88,-21.6 21.67,-36.99 47.27,-46.38 0.15,-0.07 0.15,-0.22 0,-0.37 -0.15,-0.22 -0.44,-0.44 -0.59,-0.44 -11.24,1.85 -20.86,7.03 -28.48,13.39 -10.06,8.43 -18.2,19.01 -24.63,32.03 -3.18,-0.96 -6.36,-1.92 -9.47,-3.03 -9.47,-3.25 -33.88,-14.5 -43.35,-22.56 -2.96,-2.52 -4.36,-2.89 -5.99,-1.78 -0.37,0.22 -1.48,1.33 -2.29,2.37 -3.4,4.51 -7.03,12.13 -8.36,17.38 -0.15,0.52 0.74,1.04 1.63,0.67 4.36,-1.92 23.38,6.29 28.92,8.51 3.55,1.41 7.18,2.66 10.8,3.92 7.55,2.52 15.16,4.81 22.93,6.66 -0.44,1.26 -0.89,2.44 -1.33,3.7 -1.33,3.85 -2.37,7.69 -3.33,11.54 -18.27,-2.74 -33.73,-7.4 -43.87,-11.61 -7.03,-2.89 -11.47,-3.63 -14.57,-2 -0.52,0.3 -1.04,1.18 -0.81,2.52 0.74,4.29 2.15,8.65 4.22,12.8 1.7,3.4 2.66,2.29 4.29,1.92 2.29,-0.52 5.03,0.22 7.18,0.59 4.29,0.81 8.58,1.92 12.87,2.81 9.39,2 18.94,3.25 28.55,3.85 -0.81,5.18 -1.33,10.21 -1.63,15.02 -1.26,-0.07 -2.44,-0.15 -3.62,-0.15 -13.98,-0.81 -29.81,-4.66 -34.92,-6.07 -0.52,-0.15 -0.44,1.33 -0.15,1.7 2.29,2.59 6.73,7.18 7.77,8.28 2.59,2.89 5.55,4.88 9.25,6.07 4.59,1.48 9.39,1.77 14.13,1.92 2.22,0.07 4.66,0.15 7.18,0.15 0,2.59 0,5.1 0.15,7.4 0.15,4.73 0.44,9.54 1.92,14.13 1.18,3.7 3.18,6.66 6.07,9.25 1.11,1.04 5.77,5.47 8.29,7.77 0.37,0.37 1.85,0.37 1.7,-0.15 -1.33,-5.18 -5.25,-20.93 -6.07,-34.92 -0.07,-1.26 -0.15,-2.59 -0.22,-3.85 4.81,-0.3 9.91,-0.81 15.02,-1.63 0.59,9.69 1.78,19.31 3.85,28.78 0.96,4.29 2,8.51 2.81,12.87 0.44,2.22 1.11,4.96 0.59,7.18 -0.37,1.63 -1.48,2.59 1.92,4.29 4.14,2.07 8.51,3.48 12.8,4.22 1.41,0.22 2.29,-0.3 2.51,-0.81 1.63,-3.11 0.89,-7.47 -2,-14.57 -4.22,-10.13 -8.95,-25.67 -11.69,-44.01 3.99,-0.96 7.91,-2.07 11.84,-3.4 1.18,-0.37 2.29,-0.81 3.4,-1.26 1.85,7.77 4.14,15.46 6.66,23.08 1.18,3.63 2.52,7.25 3.92,10.8 2.14,5.47 10.43,24.49 8.51,28.92 -0.37,0.89 0.15,1.77 0.67,1.63 5.18,-1.41 12.87,-5.03 17.38,-8.36 1.04,-0.81 2.15,-1.92 2.37,-2.29 1.11,-1.55 0.74,-2.96 -1.77,-5.99 -8.06,-9.39 -19.31,-33.81 -22.56,-43.35 -1.11,-3.18 -2.15,-6.36 -3.03,-9.62 13.24,-6.44 23.97,-14.65 32.48,-24.71zm-17.68 -54.67c6.66,-5.18 14.42,-8.88 22.41,-11.47 1.33,-0.44 2.59,-0.81 3.92,-1.26 -0.37,1.26 -0.81,2.44 -1.18,3.7 -2.66,7.99 -6.29,15.76 -11.47,22.41 -8.36,10.65 -19.9,16.5 -32.4,18.79 2.37,-12.43 8.14,-23.89 18.72,-32.18zm-30.48 43.94c-0.3,3.7 -0.3,7.4 -0.22,11.17 0,0.52 0.07,1.04 0.07,1.48 -4.36,0.44 -8.88,0.74 -13.39,0.89 0.15,-4.51 0.44,-9.02 0.89,-13.39 0.59,0 1.18,0.07 1.7,0.07 3.63,0.07 7.32,0 10.95,-0.22zm-33.07 -2.29c4.07,0.74 8.14,1.41 12.28,1.85 -0.81,4.88 -1.41,9.62 -1.7,13.91 -3.92,-0.07 -7.84,-0.37 -11.69,-0.74 -0.67,-0.07 -1.26,-0.15 -1.92,-0.22 0.74,-4.96 1.77,-9.91 3.03,-14.8zm-4.66 39.95c0,-4.81 0.22,-9.84 0.59,-14.87 4.73,0.15 9.54,0.07 14.28,0 -0.07,4.73 -0.15,9.54 0,14.28 -5.1,0.44 -10.06,0.59 -14.87,0.59zm25.08 -1.63c-0.07,-0.59 -0.15,-1.11 -0.15,-1.7 -0.37,-3.92 -0.59,-7.92 -0.74,-11.91 4.29,-0.3 9.02,-0.89 13.91,-1.7 0.44,4.14 1.04,8.21 1.77,12.35 -4.81,1.26 -9.76,2.29 -14.79,2.96z"/>
 </g>
</svg>
