<?xml version="1.0" encoding="utf-8"?>
<!-- Generator: Adobe Illustrator 27.7.0, SVG Export Plug-In . SVG Version: 6.00 Build 0)  -->
<svg version="1.1" id="Layer_1" xmlns="http://www.w3.org/2000/svg" xmlns:xlink="http://www.w3.org/1999/xlink" x="0px" y="0px"
	 viewBox="0 0 47.91 47.91" style="enable-background:new 0 0 47.91 47.91;" xml:space="preserve">
<style type="text/css">
	.st0{fill:#3A77FF;}
	.st1{fill:#17376D;}
</style>
<g>
	<g>
		<rect x="24.81" y="9.38" class="st0" width="5.64" height="23.78"/>
		<path class="st0" d="M12.98,11.47c-5.41,0-9.8,4.39-9.8,9.8s4.39,9.8,9.8,9.8s9.8-4.39,9.8-9.8S18.39,11.47,12.98,11.47z
			 M12.98,24.24c-1.64,0-2.97-1.33-2.97-2.97s1.33-2.97,2.97-2.97s2.97,1.33,2.97,2.97S14.62,24.24,12.98,24.24L12.98,24.24z"/>
		<polygon class="st0" points="44.73,15.32 40.98,15.32 38.78,17.52 36.58,15.32 32.83,15.32 32.83,19.13 35,21.3 32.83,23.47 
			32.83,27.22 36.63,27.22 38.78,25.08 40.92,27.22 44.73,27.22 44.73,23.47 42.56,21.3 44.73,19.13 		"/>
	</g>
	<g>
		<path class="st1" d="M6.37,38.46l0-1.72c0-0.37-0.14-0.66-0.55-0.66c-0.35,0-0.7,0.3-0.7,0.95l0,1.43H4.79l0-1.72
			c0-0.37-0.14-0.66-0.56-0.66c-0.36,0-0.7,0.3-0.7,0.95l0,1.43H3.2l0-1.98c0-0.2,0-0.4-0.02-0.61h0.31l0,0.44l0.01,0.01
			c0.1-0.18,0.26-0.5,0.82-0.5c0.23,0,0.61,0.1,0.69,0.55h0.01c0.12-0.3,0.43-0.55,0.84-0.55c0.53,0,0.83,0.37,0.83,0.87l0,1.79
			H6.37z"/>
		<path class="st1" d="M9.24,38.38c-0.23,0.09-0.52,0.14-0.76,0.14c-0.87,0-1.19-0.58-1.19-1.36c0-0.79,0.44-1.36,1.1-1.36
			c0.74,0,1.04,0.59,1.04,1.29v0.16H7.64c0,0.55,0.3,0.99,0.86,0.99c0.24,0,0.58-0.1,0.73-0.19V38.38z M9.08,36.98
			c0-0.45-0.18-0.9-0.67-0.9c-0.48,0-0.77,0.47-0.77,0.9L9.08,36.98z"/>
		<path class="st1" d="M13.22,38.46v-1.72c0-0.37-0.14-0.66-0.55-0.66c-0.36,0-0.71,0.3-0.71,0.95v1.43h-0.32l0-1.72
			c0-0.37-0.14-0.66-0.56-0.66c-0.36,0-0.7,0.3-0.7,0.95l0,1.43h-0.32v-1.98c0-0.2,0-0.4-0.02-0.61h0.31v0.44l0.01,0.01
			c0.1-0.18,0.26-0.5,0.82-0.5c0.23,0,0.61,0.1,0.69,0.55h0.01c0.12-0.3,0.43-0.55,0.84-0.55c0.53,0,0.83,0.37,0.83,0.87v1.79H13.22
			z"/>
		<path class="st1" d="M14.3,34.65h0.32l0,1.66h0.01c0.05-0.13,0.3-0.5,0.82-0.5c0.77,0,1.08,0.57,1.08,1.36
			c0,0.77-0.36,1.36-1.08,1.36c-0.38,0-0.64-0.14-0.82-0.47h-0.01v0.41H14.3L14.3,34.65z M15.4,36.08c-0.59,0-0.78,0.61-0.78,1.08
			c0,0.47,0.2,1.08,0.78,1.08c0.62,0,0.78-0.58,0.78-1.08C16.18,36.66,16.02,36.08,15.4,36.08z"/>
		<path class="st1" d="M18.95,38.38c-0.22,0.09-0.52,0.14-0.76,0.14c-0.87,0-1.19-0.58-1.19-1.36c0-0.79,0.44-1.36,1.1-1.36
			c0.74,0,1.04,0.59,1.04,1.29v0.16h-1.79c0,0.55,0.3,0.99,0.86,0.99c0.24,0,0.58-0.1,0.73-0.19V38.38z M18.79,36.98
			c0-0.45-0.18-0.9-0.67-0.9c-0.48,0-0.77,0.47-0.77,0.9H18.79z"/>
		<path class="st1" d="M19.76,36.45c0-0.28,0-0.39-0.02-0.58h0.32v0.5h0.01c0.12-0.29,0.34-0.56,0.67-0.56
			c0.08,0,0.17,0.02,0.23,0.03v0.34c-0.07-0.02-0.15-0.03-0.24-0.03c-0.51,0-0.65,0.57-0.65,1.04v1.28h-0.32V36.45z"/>
		<path class="st1" d="M23.92,35.81c0.85,0,1.22,0.65,1.22,1.36c0,0.71-0.37,1.36-1.22,1.36c-0.85,0-1.22-0.65-1.22-1.36
			C22.7,36.46,23.08,35.81,23.92,35.81z M23.92,38.25c0.57,0,0.87-0.48,0.87-1.08c0-0.6-0.3-1.08-0.87-1.08
			c-0.56,0-0.87,0.48-0.87,1.08C23.06,37.77,23.36,38.25,23.92,38.25z"/>
		<path class="st1" d="M25.98,36.14h-0.53v-0.27h0.53v-0.19c0-0.54,0.02-1.09,0.69-1.09c0.1,0,0.24,0.01,0.3,0.05l-0.02,0.28
			c-0.07-0.04-0.16-0.06-0.26-0.06c-0.44,0-0.4,0.47-0.4,0.78v0.22h0.59v0.27H26.3v2.32l-0.32,0L25.98,36.14z"/>
		<path class="st1" d="M29.94,34.91h0.81l1.41,3.55h-0.8l-0.31-0.81H29.6l-0.31,0.81h-0.74L29.94,34.91z M30.33,35.63h-0.01
			l-0.52,1.47h1.05L30.33,35.63z"/>
		<path class="st1" d="M34.55,35.56c-0.23-0.1-0.48-0.15-0.73-0.15c-0.25,0-0.57,0.11-0.57,0.49c0,0.62,1.57,0.36,1.57,1.55
			c0,0.78-0.62,1.07-1.35,1.07c-0.39,0-0.57-0.05-0.92-0.14l0.07-0.64c0.25,0.13,0.53,0.22,0.81,0.22c0.27,0,0.64-0.14,0.64-0.46
			c0-0.68-1.57-0.4-1.57-1.57c0-0.79,0.62-1.08,1.25-1.08c0.31,0,0.6,0.04,0.86,0.13L34.55,35.56z"/>
		<path class="st1" d="M36.13,35.47H35.1v-0.56l2.78,0v0.56h-1.03v2.99h-0.72V35.47z"/>
		<path class="st1" d="M38.27,34.91h0.78c0.77,0,1.69-0.03,1.69,0.96c0,0.42-0.28,0.76-0.74,0.82v0.01
			c0.19,0.02,0.31,0.21,0.38,0.37l0.58,1.39h-0.8l-0.43-1.11c-0.1-0.26-0.2-0.37-0.5-0.37h-0.23v1.48h-0.72L38.27,34.91z
			 M38.99,36.43h0.24c0.35,0,0.76-0.05,0.76-0.49c0-0.43-0.4-0.46-0.76-0.46h-0.24V36.43z"/>
		<path class="st1" d="M42.51,34.91h0.81l1.41,3.55h-0.8l-0.31-0.81h-1.46l-0.31,0.81h-0.75L42.51,34.91z M42.9,35.63L42.9,35.63
			l-0.53,1.47h1.05L42.9,35.63z"/>
	</g>
</g>
</svg>
